Coordinates
version=1
nRows=22
nColumns=24
inDegrees=yes

Units are S.I. units (second, meters, Newtons, ...)
Angles are in degrees.

endheader
time	pelvis_tilt	pelvis_list	pelvis_rotation	pelvis_tx	pelvis_ty	pelvis_tz	hip_flexion_r	hip_adduction_r	hip_rotation_r	knee_angle_r	ankle_angle_r	subtalar_angle_r	mtp_angle_r	hip_flexion_l	hip_adduction_l	hip_rotation_l	knee_angle_l	ankle_angle_l	subtalar_angle_l	mtp_angle_l	lumbar_extension	lumbar_bending	lumbar_rotation
      3.69000000	     -7.35901174	     -2.79999605	     -6.43942324	     -1.05530676	     -0.03858775	     -0.08828744	     -6.82431414	      7.31743127	      7.64538795	    -25.69348386	      3.27520134	     18.52506142	     20.65438850	     37.56365226	     -1.90594509	    -19.21225753	    -14.15283636	     11.44614501	     19.20856240	    -20.14606645	      6.74431823	      2.95643685	      8.46390810
      3.69500000	     -7.37700512	     -2.53028114	     -6.38723531	     -1.04756853	     -0.03901576	     -0.08873842	     -6.81189349	      6.80646582	      7.16127563	    -26.42937761	      2.24147447	     19.55225623	     21.50290501	     37.46384468	     -1.52139047	    -18.86102695	    -14.75224542	     10.74944589	     18.12070737	    -20.11938850	      6.93935207	      2.61232635	      8.34477323
      3.70000000	     -7.39846385	     -2.20585542	     -6.32152176	     -1.03985757	     -0.03936181	     -0.08924373	     -6.73048561	      6.22058091	      6.63806110	    -27.20029592	      1.00549492	     20.57039904	     22.75709212	     37.35381147	     -1.05309763	    -18.43102139	    -15.26848071	      9.82637591	     16.91920354	    -19.90303714	      7.12949706	      2.20615880	      8.19950010
      3.70500000	     -7.43912886	     -1.82724487	     -6.23465612	     -1.03213783	     -0.03965176	     -0.08981838	     -6.57388143	      5.56426397	      6.09696518	    -28.00673469	     -0.38694969	     21.60173469	     24.20291681	     37.26865457	     -0.50160000	    -17.95108870	    -15.74116870	      8.73118486	     15.60587867	    -19.54204102	      7.34032910	      1.74297387	      8.03227343
      3.71000000	     -7.49340600	     -1.38383322	     -6.10765492	     -1.02424407	     -0.03986266	     -0.09045242	     -6.38454297	      4.83016487	      5.52972106	    -28.78407192	     -2.05097271	     22.52050316	     25.92986257	     37.17399316	      0.16279212	    -17.36998570	    -16.13604401	      7.48669887	     14.15306869	    -18.94273029	      7.60933503	      1.20710790	      7.81506320
      3.71500000	     -7.54573643	     -0.90745908	     -6.07038041	     -1.01655928	     -0.04000171	     -0.09098766	     -6.08362254	      4.04103757	      5.05957757	    -29.65130050	     -3.89353758	     23.49483999	     28.17870472	     37.10577157	      0.78239046	    -16.98950449	    -16.53308805	      6.02681321	     12.80254550	    -17.67848230	      7.82647564	      0.64635959	      7.69181872
      3.72000000	     -7.69702236	     -0.43278069	     -5.94116635	     -1.00897935	     -0.04028587	     -0.09169879	     -5.56953218	      3.25987358	      4.49622856	    -30.79636831	     -5.47657958	     24.77678411	     28.98562932	     37.20619211	      1.48270101	    -16.28048113	    -17.05471472	      4.83138975	     11.28443426	    -17.77757843	      8.13099396	      0.09004840	      7.46697516
      3.72500000	     -7.78582417	      0.10016979	     -5.76795806	     -1.00119581	     -0.04041490	     -0.09241690	     -5.13202287	      2.40498598	      3.91227449	    -31.80973904	     -7.55093735	     25.68166222	     30.61707070	     37.20313583	      2.28690061	    -15.49084391	    -17.53184166	      3.62443378	      9.72553139	    -17.85378866	      8.40662397	     -0.54814846	      7.19693341
      3.73000000	     -7.92812327	      0.62897687	     -5.64768397	     -0.99356881	     -0.04061120	     -0.09309620	     -4.52841213	      1.54761238	      3.41405811	    -32.97522682	     -9.64855982	     26.68010222	     32.04386419	     37.30848878	      3.03374866	    -14.82605791	    -18.12001396	      2.55110295	      8.28604800	    -18.17778075	      8.70707881	     -1.16430682	      6.98392959
      3.73500000	     -8.12057723	      1.17299467	     -5.58564060	     -0.98597481	     -0.04087184	     -0.09373008	     -3.77971380	      0.67741053	      3.07035328	    -34.30371295	    -11.67234626	     27.81327593	     32.86773512	     37.48126119	      3.74967723	    -14.26024530	    -18.75922574	      1.62972050	      6.92274588	    -18.65662072	      9.06193021	     -1.77277845	      6.82847746
      3.74000000	     -8.27307318	      1.69245787	     -5.43644683	     -0.97843562	     -0.04111552	     -0.09445885	     -3.04096748	     -0.16986524	      2.62364819	    -35.64180717	    -13.91994965	     28.63703501	     33.73524326	     37.60852795	      4.51325778	    -13.54001868	    -19.40050977	      0.77875717	      5.55061655	    -19.29983389	      9.35115747	     -2.37634686	      6.59901826
      3.74500000	     -8.42186960	      2.21226023	     -5.28716065	     -0.97093955	     -0.04137259	     -0.09517741	     -2.25052989	     -1.01269780	      2.22773034	    -37.04868660	    -16.23022753	     29.30532555	     34.40438456	     37.72379287	      5.26599461	    -12.89877999	    -20.04805481	      0.07941384	      4.34147557	    -20.00307374	      9.62636488	     -2.97978063	      6.37647101
      3.75000000	     -8.55679005	      2.72628244	     -5.12342018	     -0.96351219	     -0.04164457	     -0.09590029	     -1.42171909	     -1.84548152	      1.84203801	    -38.53559621	    -18.54312995	     29.78841364	     34.75058842	     37.81094135	      6.01258466	    -12.32470779	    -20.68533515	     -0.48395484	      3.27075360	    -20.68700509	      9.87194585	     -3.57833852	      6.15015140
      3.75500000	     -8.67194506	      3.23512418	     -4.94232745	     -0.95611560	     -0.04192443	     -0.09667760	     -0.57324377	     -2.67363680	      1.46948146	    -40.08922755	    -20.82904051	     30.09054282	     34.75700991	     37.84931133	      6.76096322	    -11.83427921	    -21.29139627	     -0.89258800	      2.33618344	    -21.28594557	     10.08834437	     -4.17018426	      5.89140902
      3.76000000	     -8.77447719	      3.74537031	     -4.74346874	     -0.94880593	     -0.04219986	     -0.09749392	      0.30842830	     -3.49864297	      1.11018312	    -41.71615877	    -23.04718853	     30.18355435	     34.40846657	     37.83922678	      7.51616927	    -11.40823434	    -21.83666019	     -1.21940183	      1.51559770	    -21.74852973	     10.27478764	     -4.76369654	      5.61367644
      3.76500000	     -8.82729952	      4.29348759	     -4.54943119	     -0.94150788	     -0.04242294	     -0.09823696	      1.17279406	     -4.35734795	      0.76804774	    -43.39545913	    -25.17742411	     30.00398485	     33.78718923	     37.72580886	      8.27815330	    -11.19223828	    -22.30070679	     -1.41752324	      0.92828716	    -21.93560116	     10.40986801	     -5.41528637	      5.32373441
      3.77000000	     -8.93983929	      4.73547695	     -4.26938248	     -0.93445075	     -0.04271109	     -0.09931063	      2.13834363	     -5.11148984	      0.38405825	    -45.13517489	    -27.20051897	     29.73247389	     32.71754542	     37.65234056	      9.04606813	    -10.67580025	    -22.71209314	     -1.69130580	      0.09108542	    -22.11444143	     10.55095733	     -5.91450638	      4.98403499
      3.77500000	     -8.99626504	      5.21858116	     -4.01066241	     -0.92742644	     -0.04289672	     -0.10028895	      3.08283297	     -5.90089041	      0.02776089	    -46.92205602	    -29.05724913	     29.16816765	     31.31203778	     37.45949519	      9.81793905	    -10.35569345	    -23.02242983	     -1.87269659	     -0.53194063	    -22.04436457	     10.63264697	     -6.47286373	      4.64350384
      3.78000000	     -9.03776517	      5.68941019	     -3.73817164	     -0.92048977	     -0.04302837	     -0.10130453	      4.04290507	     -6.67479874	     -0.32259138	    -48.74399252	    -30.69641808	     28.42086110	     29.57816727	     37.19969594	     10.59042191	    -10.05749743	    -23.24115471	     -2.04435589	     -1.11659486	    -21.72805537	     10.68538262	     -7.01666548	      4.26568472
      3.78500000	     -9.07996311	      6.17154030	     -3.38194014	     -0.91365031	     -0.04317664	     -0.10241988	      5.02366681	     -7.47991887	     -0.74580909	    -50.66457844	    -31.77143163	     27.73233889	     27.18290319	     36.91452002	     11.40885989	     -9.81341849	    -23.39076386	     -2.35969135	     -1.66040282	    -20.79485681	     10.71149138	     -7.59175720	      3.79682832
      3.79000000	     -9.08873562	      6.63441812	     -3.09675176	     -0.90688021	     -0.04315959	     -0.10344249	      5.99848708	     -8.23337657	     -1.05106837	    -52.49633472	    -32.84979601	     26.69609023	     25.20688465	     36.51212298	     12.18378433	     -9.54048077	    -23.40095842	     -2.66974732	     -2.22155633	    -19.69495969	     10.70399814	     -8.13433765	      3.37518718
      3.79500000	     -9.04997020	      7.07554503	     -2.91351855	     -0.90020820	     -0.04295729	     -0.10438691	      6.96198617	     -8.93590192	     -1.21889221	    -54.20221910	    -34.00536413	     25.38904414	     23.93883598	     36.02258165	     12.89541110	     -9.32324694	    -23.37351206	     -2.73649153	     -2.72537856	    -19.23722287	     10.64563853	     -8.61545426	      3.10136822
